<svg viewBox="0 0 100 100" xmlns="http://www.w3.org/2000/svg">
 <path d="m0 0h100v100h-100z" fill="#111"/>
 <path d="m18.76 6.721c0.01113 18.08-0.03846 36.15 0.03965 54.23 0.2167 6.581 1.039 13.35 4.146 19.26 2.934 5.477 8.072 9.702 13.99 11.59 6.192 2.091 12.87 2.293 19.32 1.568 6.124-0.7649 12.28-3.081 16.65-7.557 3.883-3.885 6.19-9.102 7.188-14.45 1.584-7.781 1.045-15.76 1.142-23.65v-41.47h-18.54c-0.0095 18.09 0.03596 36.18-0.0414 54.26-0.09266 3.041-0.3576 6.304-1.38 9.069-0.9121 2.865-3.242 5.275-6.172 6.072-2.136 0.674-4.539 0.805-6.669 0.6284-2.76-0.1379-5.608-1.019-7.566-3.048-1.586-1.651-2.357-3.961-2.855-6.086-0.9567-4.678-0.6237-9.467-0.7146-14.22-0.01102-15.56 3.48e-4 -31.11-5e-3 -46.67h-18.54v0.4701z" fill="#d70008"/>
</svg>
